<?xml version="1.0" encoding="UTF-8"?><svg xmlns="http://www.w3.org/2000/svg" xmlns:xlink="http://www.w3.org/1999/xlink" viewBox="0 0 700 500"><defs><style>.cls-1,.cls-2,.cls-3,.cls-4,.cls-5,.cls-6,.cls-7,.cls-8,.cls-9,.cls-10,.cls-11,.cls-12{stroke-width:0px;}.cls-1,.cls-2,.cls-13{opacity:.3;}.cls-1,.cls-8{fill:#f1f1f1;}.cls-2,.cls-7,.cls-10,.cls-11{fill:#cecece;}.cls-14{isolation:isolate;}.cls-3{fill:#00fcf5;}.cls-4{fill:none;}.cls-5{fill:#4b4e53;}.cls-6{fill:#fff;}.cls-7{opacity:.18;}.cls-15{clip-path:url(#clippath);}.cls-9{fill:#ff6161;}.cls-16{mix-blend-mode:multiply;}.cls-10{opacity:.1;}.cls-17{opacity:.27;}.cls-12{fill:#f5f8fd;}</style><clipPath id="clippath"><path class="cls-4" d="m442.91,193.12c-3.97-17.77-4.03-26.73-30.62-28.99-22.98-1.95-46.01-2.89-69.09-2.5-23.07-.39-46.1.55-69.08,2.5-26.59,2.25-26.65,11.22-30.62,28.99-5.61,25.13-3.88,50.52,3.47,75.42,2.89,9.79,8.71,14.33,19.12,15.16,26.19,2.08,52.39.9,78.57.9,25.22.07,50.45,1.1,75.66-.9,10.41-.83,16.23-5.37,19.12-15.16,7.35-24.9,9.07-50.29,3.47-75.42Z"/></clipPath></defs><g class="cls-14"><g id="Layer_2"><g id="OBJECTS"><rect class="cls-4" width="700" height="500"/><path class="cls-12" d="m179.3,436.05c31.49-4.19,61.38-21.12,92.31-29.3,44.1-11.67,88.14-.89,128.26,9.12,40.7,10.16,83.46,24.63,128.2,19.33,48.24-5.71,81.53-44.54,99.04-87.35C693.73,184.97,477.81,90.08,350.62,61.41c-47.67-10.75-102.67-19.73-151.82,1.78-57.92,25.34-94.76,85.8-114.84,139.58-3.36,9.01-6.34,18.07-8.96,27.08-16.67,57.48-27.29,125.39,15.49,171.34,21.27,22.85,53.61,39.54,88.81,34.86Z"/><path class="cls-9" d="m222.78,249.91c-6.68,0-13.79-1.7-13.79-4.83s7.1-4.84,13.79-4.84c.28,0,.5.22.5.5s-.22.5-.5.5c-7.53,0-12.78,2.02-12.78,3.83s5.25,3.83,12.78,3.83c.28,0,.5.22.5.5s-.22.5-.5.5Z"/><g class="cls-17"><path class="cls-11" d="m283,337.12c-.08,0-.16,0-.24-.01-59.13-7.58-95.87-24.18-95.87-43.32,0-8.91,8.04-17.49,23.24-24.8.92-.44,2.01-.05,2.45.86.44.91.06,2.01-.86,2.45-13.84,6.65-21.15,14.08-21.15,21.48,0,16.63,37.24,32.57,92.65,39.67,1.01.13,1.72,1.05,1.59,2.06-.12.93-.91,1.6-1.82,1.6Z"/><path class="cls-11" d="m327.06,340.7s-.05,0-.07,0c-7.28-.28-14.56-.7-21.63-1.26-1.01-.08-1.77-.96-1.69-1.98.08-1.01.97-1.75,1.98-1.69,7.02.55,14.25.98,21.48,1.26,1.02.04,1.81.89,1.77,1.9-.04.99-.85,1.77-1.84,1.77Z"/><path class="cls-11" d="m348.5,341.1c-3.13,0-6.23-.03-9.31-.07-1.02-.02-1.82-.85-1.81-1.87.02-1.02.86-1.73,1.87-1.81,3.06.05,6.15.08,9.25.08,22.44,0,44.14-1.3,64.49-3.87,1.01-.12,1.93.58,2.05,1.59.13,1.01-.59,1.93-1.59,2.05-20.5,2.59-42.36,3.9-64.95,3.9Z"/><path class="cls-11" d="m448.91,331c-.84,0-1.59-.58-1.79-1.43-.23-.99.39-1.98,1.38-2.2,36.26-8.35,57.91-20.91,57.91-33.58,0-7.43-7.37-14.89-21.32-21.56-.91-.44-1.3-1.54-.87-2.45.44-.91,1.53-1.3,2.45-.86,15.32,7.33,23.41,15.93,23.41,24.88,0,14.72-22.15,28.27-60.76,37.17-.14.03-.28.04-.42.04Z"/><path class="cls-11" d="m348.5,331c-51.23,0-98.07-7.66-122.24-20-11.27-5.75-16.98-12.17-16.98-19.08,0-5.64,3.85-11,11.44-15.92.85-.55,1.99-.31,2.54.55.55.85.31,1.99-.54,2.54-6.48,4.2-9.76,8.51-9.76,12.83,0,5.34,5.18,10.81,14.98,15.81,23.68,12.08,69.88,19.59,120.57,19.59,26.98,0,53.07-2.13,75.46-6.14.99-.18,1.95.49,2.13,1.49.18,1-.48,1.95-1.48,2.13-22.6,4.06-48.92,6.2-76.11,6.2Z"/><path class="cls-11" d="m465.34,270.27c.17,1.43.3,2.88.41,4.33,11.81,5.38,18.29,11.42,18.29,17.31,0,8.84-14.01,17.75-38.44,24.44-.98.27-1.56,1.28-1.29,2.26.22.82.96,1.35,1.77,1.35.16,0,.33-.02.49-.07,15.37-4.2,41.15-13.43,41.15-27.98,0-8.46-8.47-15.74-22.38-21.65Z"/><path class="cls-11" d="m219.58,261.39c5.16-1.67,10.61-3.21,16.25-4.66.34-1.42.71-2.84,1.1-4.24-44.84,11.05-73.39,28.75-73.39,49.06,0,10.19,7.05,19.81,20.95,28.58.3.19.64.29.98.29.61,0,1.21-.3,1.56-.86.54-.86.28-1.99-.58-2.54-12.58-7.94-19.24-16.74-19.24-25.47,0-14.75,19.08-29.39,52.36-40.16Z"/><path class="cls-11" d="m348.5,362.66c-42.3,0-83.6-4.77-116.31-13.43-.98-.26-1.57-1.27-1.31-2.25.26-.98,1.26-1.57,2.25-1.31,32.41,8.58,73.39,13.3,115.37,13.3,4.75,0,9.57-.06,14.32-.18h.04c.99,0,1.81.79,1.84,1.79.02,1.02-.78,1.86-1.79,1.88-4.78.12-9.63.18-14.41.18Z"/><path class="cls-11" d="m389.74,361.15c-.95,0-1.76-.74-1.83-1.7-.07-1.01.68-1.9,1.7-1.97,81.22-6.05,140.17-29.57,140.17-55.93,0-6.73-3.83-13.37-11.37-19.76-.77-.66-.87-1.81-.22-2.59.65-.77,1.82-.87,2.59-.22,8.41,7.12,12.67,14.71,12.67,22.57,0,28.79-59.04,53.3-143.58,59.6-.04,0-.09,0-.14,0Z"/></g><path class="cls-7" d="m272.34,345.62c0,2.33-1.89,4.22-4.23,4.22s-4.22-1.89-4.22-4.22,1.89-4.22,4.22-4.22,4.23,1.89,4.23,4.22Z"/><path class="cls-7" d="m223.05,337.32c0,2.33-1.89,4.22-4.23,4.22s-4.22-1.89-4.22-4.22,1.89-4.23,4.22-4.23,4.23,1.89,4.23,4.23Z"/><path class="cls-7" d="m463.41,331.91c0,.9-.73,1.63-1.63,1.63s-1.63-.73-1.63-1.63.73-1.63,1.63-1.63,1.63.73,1.63,1.63Z"/><path class="cls-7" d="m485.98,310.53c0,.9-.73,1.63-1.63,1.63s-1.63-.73-1.63-1.63.73-1.63,1.63-1.63,1.63.73,1.63,1.63Z"/><path class="cls-8" d="m302.95,305.71c-15.31,0-27.18-.4-38.5-1.3-19.13-1.52-32.07-11.89-37.41-29.99-8.68-29.4-9.97-58.28-3.82-85.83.25-1.14.49-2.24.72-3.3,4.54-21.05,11.32-38.73,48.43-41.87,20.84-1.77,41.19-2.66,60.5-2.66,3.45,0,6.9.03,10.34.08,3.45-.06,6.9-.08,10.34-.08,19.3,0,39.66.9,60.5,2.66,37.11,3.15,43.89,20.82,48.43,41.87.23,1.06.47,2.16.72,3.3,6.15,27.55,4.86,56.43-3.82,85.83-5.35,18.1-18.28,28.47-37.41,29.99-11.29.9-23.14,1.3-38.42,1.3h0c-7.07,0-14.19-.08-21.08-.17-5.96-.07-11.91-.14-17.87-.16-6.87,0-13.85.08-20.61.16-6.88.08-13.99.17-21.05.17Z"/><path class="cls-11" d="m482.78,205.56c-2.81-7.34-6.03-14.14-14.75-15.92-10.79.17-11.35,2.3-11.49,14.31-.08,7.33-.25,14.64-.16,21.94-.09,7.3.08,14.62.16,21.94.14,12.01.7,14.14,11.49,14.31,8.71-1.79,11.58-8.73,14.75-15.92,4.1-9.31,3.25-32.17,0-40.66Z"/><path class="cls-11" d="m307.23,124.85c-13.82,2.81-30,6.41-30,14.75s4.34,11.35,26.96,11.49c13.8.08,27.58.25,41.34.16,13.76.09,27.54-.08,41.34-.16,22.62-.14,26.96-3.45,26.96-11.49s-16.45-11.58-30-14.75c-17.54-4.1-60.62-3.25-76.61,0Z"/><path class="cls-11" d="m205.34,246.23c2.81,7.34,6.03,14.14,14.75,15.92,10.79-.17,11.35-2.3,11.49-14.31.08-7.33.25-14.64.16-21.94.09-7.3-.08-14.62-.16-21.94-.14-12.01-.7-14.14-11.49-14.31-8.71,1.79-11.58,8.73-14.75,15.92-4.1,9.31-3.25,32.17,0,40.66Z"/><path class="cls-5" d="m442.91,193.12c-3.97-17.77-4.03-26.73-30.62-28.99-22.98-1.95-46.01-2.89-69.09-2.5-23.07-.39-46.1.55-69.08,2.5-26.59,2.25-26.65,11.22-30.62,28.99-5.61,25.13-3.88,50.52,3.47,75.42,2.89,9.79,8.71,14.33,19.12,15.16,26.19,2.08,52.39.9,78.57.9,25.22.07,50.45,1.1,75.66-.9,10.41-.83,16.23-5.37,19.12-15.16,7.35-24.9,9.07-50.29,3.47-75.42Z"/><rect class="cls-1" x="259.45" y="234.3" width="15.69" height="1.57"/><g class="cls-16"><rect class="cls-3" x="264.71" y="233.17" width="15.29" height=".49"/></g><polygon class="cls-1" points="298.03 249.04 301.21 249.04 301.21 247.36 296.76 247.36 298.03 249.04"/><rect class="cls-3" x="290.92" y="250.24" width="5.84" height="1.42"/><rect class="cls-1" x="410.91" y="198" width="15.69" height="1.57"/><g class="cls-13"><rect class="cls-8" x="414.93" y="213.87" width="6.36" height=".48"/><rect class="cls-8" x="422.12" y="213.87" width="2.27" height=".48"/></g><g class="cls-16"><rect class="cls-3" x="267.58" y="206.17" width="18.98" height="2.5"/></g><g class="cls-16"><rect class="cls-3" x="270.24" y="204.68" width="11.37" height=".24"/></g><g class="cls-16"><rect class="cls-3" x="280" y="196.6" width="18.98" height="2.5"/></g><rect class="cls-1" x="302.04" y="196.13" width="6.36" height=".48"/><g class="cls-16"><rect class="cls-3" x="267.94" y="196.13" width="11.37" height=".24"/></g><g class="cls-16"><rect class="cls-3" x="399.46" y="240.86" width="9.56" height=".88"/></g><g class="cls-16"><rect class="cls-3" x="409.35" y="240.86" width="1.32" height=".88"/></g><rect class="cls-1" x="411.12" y="250.95" width="15.29" height=".49"/><rect class="cls-1" x="351.15" y="232.93" width="15.29" height=".49"/><rect class="cls-1" x="376.1" y="223.54" width="13.14" height=".63"/><rect class="cls-1" x="325.74" y="238.78" width="13.14" height=".63"/><rect class="cls-3" x="354.67" y="198.78" width="6.92" height=".78"/><rect class="cls-3" x="302.72" y="192.49" width="6.92" height=".78"/><rect class="cls-3" x="327.82" y="240.47" width="6.92" height=".78"/><rect class="cls-3" x="363.94" y="198.78" width="2.21" height=".78"/><rect class="cls-3" x="325.09" y="249.04" width="6.18" height="1.2"/><rect class="cls-3" x="359.67" y="246.68" width="5.37" height=".68"/><rect class="cls-3" x="367.03" y="246.68" width="2.8" height=".68"/><g class="cls-13"><rect class="cls-8" x="361.07" y="246.68" width="5.37" height=".68"/><rect class="cls-8" x="368.43" y="246.68" width="2.8" height=".68"/></g><rect class="cls-1" x="322.84" y="197.86" width="2.43" height=".93"/><g class="cls-16"><rect class="cls-3" x="323.66" y="197.86" width="2.43" height=".93"/></g><rect class="cls-1" x="300.08" y="205.73" width="12.2" height=".38"/><g class="cls-16"><rect class="cls-3" x="304.21" y="205.73" width="12.2" height=".38"/></g><rect class="cls-1" x="328.18" y="215.4" width="12.2" height=".38"/><g class="cls-16"><rect class="cls-3" x="332.31" y="215.4" width="12.2" height=".38"/></g><rect class="cls-1" x="391.3" y="200.68" width="12.2" height=".38"/><g class="cls-16"><rect class="cls-3" x="395.43" y="200.68" width="12.2" height=".38"/></g><rect class="cls-1" x="271.63" y="201.98" width="7.03" height=".46"/><g class="cls-16"><rect class="cls-3" x="274.01" y="201.98" width="7.03" height=".46"/></g><rect class="cls-1" x="416.48" y="248.57" width="2.43" height=".93"/><g class="cls-16"><rect class="cls-3" x="417.3" y="248.57" width="2.43" height=".93"/></g><rect class="cls-1" x="312.34" y="251.59" width=".61" height=".74"/><g class="cls-16"><rect class="cls-3" x="312.55" y="251.59" width=".61" height=".74"/></g><rect class="cls-1" x="318.68" y="223.8" width="2.35" height=".74"/><g class="cls-16"><rect class="cls-3" x="319.47" y="223.8" width="2.35" height=".74"/></g><rect class="cls-1" x="385.05" y="204.62" width="2.43" height="1.74"/><g class="cls-16"><rect class="cls-3" x="385.87" y="204.62" width="2.43" height="1.74"/></g><rect class="cls-1" x="255.53" y="220.2" width="1.52" height="1.09"/><g class="cls-16"><rect class="cls-3" x="256.05" y="220.2" width="1.52" height="1.09"/></g><rect class="cls-1" x="420.27" y="237.83" width="1.52" height="1.09"/><g class="cls-16"><rect class="cls-3" x="420.79" y="237.83" width="1.52" height="1.09"/></g><rect class="cls-1" x="275.8" y="244.29" width="12.51" height=".46"/><g class="cls-16"><rect class="cls-3" x="280.03" y="244.29" width="12.51" height=".46"/></g><path class="cls-8" d="m273.83,227.8h-7.82v-7.82h7.82v7.82Zm0,8.5h-7.82v-7.82h7.82v7.82Zm8.5-17.01h-7.82v-7.82h7.82v7.82Zm0,17.01h-7.82v-7.82h7.82v7.82Zm8.5-25.51h-7.82v-7.82h7.82v7.82Zm0,25.51h-7.82v-7.82h7.82v7.82Zm8.5-34.01h-7.82v-7.82h7.82v7.82Zm0,34.01h-7.82v-7.82h7.82v7.82Zm8.5-34.01h-7.82v-7.82h7.82v7.82Zm0,8.5h-7.82v-7.82h7.82v7.82Zm0,8.5h-7.82v-7.82h7.82v7.82Zm0,8.5h-7.82v-7.82h7.82v7.82Zm0,8.5h-7.82v-7.82h7.82v7.82Zm0,8.5h-7.82v-7.82h7.82v7.82Zm0,8.5h-7.82v-7.82h7.82v7.82Z"/><path class="cls-8" d="m328.25,210.79h-7.82v-7.82h7.82v7.82Zm0,8.5h-7.82v-7.82h7.82v7.82Zm0,8.5h-7.82v-7.82h7.82v7.82Zm0,8.5h-7.82v-7.82h7.82v7.82Zm0,8.5h-7.82v-7.82h7.82v7.82Zm8.5-42.52h-7.82v-7.82h7.82v7.82Zm0,17.01h-7.82v-7.82h7.82v7.82Zm0,34.01h-7.82v-7.82h7.82v7.82Zm8.5-51.02h-7.82v-7.82h7.82v7.82Zm0,25.51h-7.82v-7.82h7.82v7.82Zm0,25.51h-7.82v-7.82h7.82v7.82Zm8.5-51.02h-7.82v-7.82h7.82v7.82Zm0,34.01h-7.82v-7.82h7.82v7.82Zm0,17.01h-7.82v-7.82h7.82v7.82Zm8.5-42.52h-7.82v-7.82h7.82v7.82Zm0,8.5h-7.82v-7.82h7.82v7.82Zm0,8.5h-7.82v-7.82h7.82v7.82Zm0,8.5h-7.82v-7.82h7.82v7.82Zm0,8.5h-7.82v-7.82h7.82v7.82Z"/><path class="cls-8" d="m380.98,227.8h-7.82v-7.82h7.82v7.82Zm0,8.5h-7.82v-7.82h7.82v7.82Zm8.5-17.01h-7.82v-7.82h7.82v7.82Zm0,17.01h-7.82v-7.82h7.82v7.82Zm8.5-25.51h-7.82v-7.82h7.82v7.82Zm0,25.51h-7.82v-7.82h7.82v7.82Zm8.5-34.01h-7.82v-7.82h7.82v7.82Zm0,34.01h-7.82v-7.82h7.82v7.82Zm8.5-34.01h-7.82v-7.82h7.82v7.82Zm0,8.5h-7.82v-7.82h7.82v7.82Zm0,8.5h-7.82v-7.82h7.82v7.82Zm0,8.5h-7.82v-7.82h7.82v7.82Zm0,8.5h-7.82v-7.82h7.82v7.82Zm0,8.5h-7.82v-7.82h7.82v7.82Zm0,8.5h-7.82v-7.82h7.82v7.82Z"/><g class="cls-16"><path class="cls-3" d="m277.65,227.8h-7.82v-7.82h7.82v7.82Zm0,8.5h-7.82v-7.82h7.82v7.82Zm8.5-17.01h-7.82v-7.82h7.82v7.82Zm0,17.01h-7.82v-7.82h7.82v7.82Zm8.5-25.51h-7.82v-7.82h7.82v7.82Zm0,25.51h-7.82v-7.82h7.82v7.82Zm8.5-34.01h-7.82v-7.82h7.82v7.82Zm0,34.01h-7.82v-7.82h7.82v7.82Zm8.5-34.01h-7.82v-7.82h7.82v7.82Zm0,8.5h-7.82v-7.82h7.82v7.82Zm0,8.5h-7.82v-7.82h7.82v7.82Zm0,8.5h-7.82v-7.82h7.82v7.82Zm0,8.5h-7.82v-7.82h7.82v7.82Zm0,8.5h-7.82v-7.82h7.82v7.82Zm0,8.5h-7.82v-7.82h7.82v7.82Z"/><path class="cls-3" d="m332.08,210.79h-7.82v-7.82h7.82v7.82Zm0,8.5h-7.82v-7.82h7.82v7.82Zm0,8.5h-7.82v-7.82h7.82v7.82Zm0,8.5h-7.82v-7.82h7.82v7.82Zm0,8.5h-7.82v-7.82h7.82v7.82Zm8.5-42.52h-7.82v-7.82h7.82v7.82Zm0,17.01h-7.82v-7.82h7.82v7.82Zm0,34.01h-7.82v-7.82h7.82v7.82Zm8.5-51.02h-7.82v-7.82h7.82v7.82Zm0,25.51h-7.82v-7.82h7.82v7.82Zm0,25.51h-7.82v-7.82h7.82v7.82Zm8.5-51.02h-7.82v-7.82h7.82v7.82Zm0,34.01h-7.82v-7.82h7.82v7.82Zm0,17.01h-7.82v-7.82h7.82v7.82Zm8.5-42.52h-7.82v-7.82h7.82v7.82Zm0,8.5h-7.82v-7.82h7.82v7.82Zm0,8.5h-7.82v-7.82h7.82v7.82Zm0,8.5h-7.82v-7.82h7.82v7.82Zm0,8.5h-7.82v-7.82h7.82v7.82Z"/><path class="cls-3" d="m384.8,227.8h-7.82v-7.82h7.82v7.82Zm0,8.5h-7.82v-7.82h7.82v7.82Zm8.5-17.01h-7.82v-7.82h7.82v7.82Zm0,17.01h-7.82v-7.82h7.82v7.82Zm8.5-25.51h-7.82v-7.82h7.82v7.82Zm0,25.51h-7.82v-7.82h7.82v7.82Zm8.5-34.01h-7.82v-7.82h7.82v7.82Zm0,34.01h-7.82v-7.82h7.82v7.82Zm8.5-34.01h-7.82v-7.82h7.82v7.82Zm0,8.5h-7.82v-7.82h7.82v7.82Zm0,8.5h-7.82v-7.82h7.82v7.82Zm0,8.5h-7.82v-7.82h7.82v7.82Zm0,8.5h-7.82v-7.82h7.82v7.82Zm0,8.5h-7.82v-7.82h7.82v7.82Zm0,8.5h-7.82v-7.82h7.82v7.82Z"/></g><path class="cls-6" d="m528.08,449.95h57.77c4.23,0,7.65-3.43,7.65-7.66,0-.15,0-.31-.01-.46h-73.04c-.26,4.22,2.96,7.85,7.18,8.11.15,0,.31.01.46.01Z"/><path class="cls-8" d="m549.62,340.11l-6.14,21.28h27l-6.14-21.28c-1.17-4.06-5.42-6.4-9.48-5.23-2.53.73-4.5,2.7-5.23,5.23h0Z"/><polygon class="cls-11" points="535.73 388.2 578.21 388.2 570.47 361.39 543.47 361.39 535.73 388.2"/><polygon class="cls-8" points="527.99 415.01 585.95 415.01 578.21 388.2 535.73 388.2 527.99 415.01"/><path class="cls-11" d="m585.95,415.01h-57.96l-7.26,25.15c-.15.54-.25,1.1-.28,1.66h73.04c-.03-.56-.13-1.12-.28-1.66l-7.26-25.15Z"/><path class="cls-8" d="m602.75,449.95h-91.56c-2.24,0-4.06-1.82-4.06-4.06h0c0-2.24,1.82-4.06,4.06-4.06h91.56c2.24,0,4.06,1.82,4.06,4.06h0c0,2.24-1.82,4.06-4.06,4.06h0Z"/><g class="cls-15"><rect class="cls-2" x="232.07" y="157.85" width="232.02" height="3.04"/><rect class="cls-10" x="232.07" y="165.32" width="232.02" height="3.04"/><rect class="cls-10" x="232.07" y="172.79" width="232.02" height="3.04"/><rect class="cls-10" x="232.07" y="180.25" width="232.02" height="3.04"/><rect class="cls-10" x="232.07" y="187.72" width="232.02" height="3.04"/><rect class="cls-10" x="232.07" y="195.18" width="232.02" height="3.04"/><rect class="cls-10" x="232.07" y="202.65" width="232.02" height="3.04"/><rect class="cls-10" x="232.07" y="210.11" width="232.02" height="3.04"/><rect class="cls-10" x="232.07" y="217.58" width="232.02" height="3.04"/><rect class="cls-10" x="232.07" y="225.05" width="232.02" height="3.04"/><rect class="cls-10" x="232.07" y="232.51" width="232.02" height="3.04"/><rect class="cls-10" x="232.07" y="239.98" width="232.02" height="3.04"/><rect class="cls-10" x="232.07" y="247.44" width="232.02" height="3.04"/><rect class="cls-10" x="232.07" y="254.91" width="232.02" height="3.04"/><rect class="cls-10" x="232.07" y="262.38" width="232.02" height="3.04"/><rect class="cls-10" x="232.07" y="269.84" width="232.02" height="3.04"/><rect class="cls-10" x="232.07" y="277.31" width="232.02" height="3.04"/><rect class="cls-2" x="232.07" y="284.77" width="232.02" height="3.04"/></g></g></g></g></svg>