<?xml version="1.0" encoding="utf-8"?>
<!-- Generator: Adobe Illustrator 27.8.1, SVG Export Plug-In . SVG Version: 6.00 Build 0)  -->
<svg width="40" height="40" version="1.1" id="Layer_1" xmlns="http://www.w3.org/2000/svg" xmlns:xlink="http://www.w3.org/1999/xlink" x="0px" y="0px"
	 viewBox="0 0 32 32" style="enable-background:new 0 0 32 32;" xml:space="preserve">
<style type="text/css">
	.st0-brand{fill:#55E6A5;}
</style>
<g>
	<path class="st0-brand" d="M10.4,8.2h4v1h-2.9v1.6h2.8v1h-2.8v1.6h2.9v1h-4V8.2z"/>
</g>
<g>
	<path class="st0-brand" d="M18.1,8.2h1.1v5.1h2.6v1h-3.7V8.2z"/>
</g>
<g>
	<path class="st0-brand" d="M10.4,17.9h0.9l2.9,3.9v-3.9h1.1v6.1h-0.9l-2.9-4v4h-1.1V17.9z"/>
</g>
<g>
	<path class="st0-brand" d="M19.5,17.9h1.4l2.1,6.1h-1.2l-0.4-1.3H19l-0.4,1.3h-1.2L19.5,17.9z M21,21.6l-0.9-2.6l-0.9,2.6H21z"/>
</g>
<g>
	<path class="st0-brand" d="M16,30.8C7.8,30.8,1.2,24.2,1.2,16C1.2,7.8,7.8,1.2,16,1.2c8.2,0,14.8,6.7,14.8,14.8
		C30.8,24.2,24.2,30.8,16,30.8z M16,2.4C8.5,2.4,2.4,8.5,2.4,16c0,7.5,6.1,13.6,13.6,13.6c7.5,0,13.6-6.1,13.6-13.6
		C29.6,8.5,23.5,2.4,16,2.4z"/>
</g>
</svg>
