<?xml version="1.0" encoding="utf-8"?>
<!-- Generator: Adobe Illustrator 27.8.1, SVG Export Plug-In . SVG Version: 6.00 Build 0)  -->
<svg width="86" height="32" version="1.1" id="Layer_1" xmlns="http://www.w3.org/2000/svg" xmlns:xlink="http://www.w3.org/1999/xlink" x="0px" y="0px"
	 viewBox="0 0 86 26" style="enable-background:new 0 0 86 26;" xml:space="preserve">
<style type="text/css">
	.st0{fill:#fff;}
</style>
<g>
	<path class="st0" d="M5.2,3.7h12.5v3H8.7v4.8h8.6v3H8.7v4.9h9.1v3H5.2V3.7z"/>
	<path class="st0" d="M24.6,3.7H28v15.8h8.1v3H24.6V3.7z"/>
	<path class="st0" d="M42.6,3.7h2.7l9,12.1V3.7h3.4v18.8h-2.7L46,10.2v12.3h-3.4V3.7z"/>
	<path class="st0" d="M70.5,3.7H75l6.5,18.8h-3.7l-1.3-4h-7.3l-1.4,4H64L70.5,3.7z M75.4,15.4l-2.7-7.9l-2.7,7.9H75.4z"/>
</g>
</svg>
