<?xml version="1.0" encoding="UTF-8"?><svg id="Layer_2" xmlns="http://www.w3.org/2000/svg" viewBox="0 0 300 200"><defs><style>.cls-1{fill:#fff6eb;}.cls-1,.cls-2,.cls-3,.cls-4,.cls-5,.cls-6,.cls-7,.cls-8,.cls-9,.cls-10,.cls-11{stroke-width:0px;}.cls-2{fill:none;}.cls-3{fill:#eaaa5e;}.cls-4{fill:#4b4e53;}.cls-5{fill:#d6eaed;}.cls-6{fill:#fbfdff;}.cls-7{fill:#bcbec0;}.cls-8{fill:#f89d13;}.cls-9{fill:#39b54a;}.cls-10{fill:#dde9fc;}.cls-11{fill:#2f3133;}</style></defs><g id="OBJECTS"><path class="cls-5" d="m250.6,153.64c0,1.54-1.4,2.8-3.13,2.8H52.53c-1.73,0-3.13-1.25-3.13-2.8V35.71c0-1.54,1.4-2.8,3.13-2.8h194.95c1.73,0,3.13,1.25,3.13,2.8v117.93Z"/><path class="cls-1" d="m240.37,147.28s0,0,0,0H59.64s0,0,0,0V42.06h180.74v105.22Z"/><path class="cls-4" d="m250.93,167.09H49.07c-5.01,0-9.07-4.06-9.07-9.07h0c0-.89.72-1.61,1.61-1.61h216.78c.89,0,1.61.72,1.61,1.61h0c0,5.01-4.06,9.07-9.07,9.07Z"/><path class="cls-11" d="m164.45,156.43h0c0,3.05-2.47,5.52-5.52,5.52h-17.87c-3.05,0-5.52-2.47-5.52-5.52h0"/><rect class="cls-6" x="61.44" y="43.47" width="177.38" height="101.65"/><rect class="cls-10" x="61.44" y="43.47" width="177.38" height="10.76"/><path class="cls-8" d="m67.77,49.27c0,.98-.79,1.77-1.77,1.77s-1.77-.79-1.77-1.77.79-1.77,1.77-1.77,1.77.79,1.77,1.77Z"/><circle class="cls-3" cx="71.6" cy="49.27" r="1.77"/><circle class="cls-9" cx="77.19" cy="49.27" r="1.77"/><rect class="cls-10" x="99.97" y="57.35" width="134.99" height="4.57"/><rect class="cls-10" x="99.97" y="67.15" width="20.59" height="23.51"/><rect class="cls-10" x="126.69" y="67.15" width="20.59" height="23.51"/><rect class="cls-10" x="99.97" y="106.94" width="20.59" height="30.42"/><rect class="cls-10" x="126.69" y="106.94" width="20.59" height="30.42"/><rect class="cls-10" x="153.42" y="106.94" width="20.59" height="30.42"/><rect class="cls-10" x="180.15" y="106.94" width="20.59" height="30.42"/><rect class="cls-10" x="206.87" y="106.94" width="20.59" height="30.42"/><rect class="cls-10" x="99.97" y="96.54" width="134.99" height="4.57"/><rect class="cls-1" x="64" y="56.8" width="31.24" height="86.42"/><path class="cls-8" d="m150,54.26c-22.32,0-40.42,18.1-40.42,40.42s18.1,40.42,40.42,40.42,40.42-18.1,40.42-40.42-18.1-40.42-40.42-40.42Zm0,7.73c7.74,0,14.84,2.69,20.44,7.18l-45.94,45.94c-4.49-5.6-7.18-12.71-7.18-20.44,0-18.05,14.63-32.68,32.68-32.68Zm0,65.37c-7.47,0-14.36-2.51-19.87-6.73l45.82-45.82c4.22,5.51,6.73,12.39,6.73,19.87,0,18.05-14.63,32.68-32.68,32.68Z"/><path class="cls-7" d="m162.59,89.06h-26.65v-10.33c0-7.35,5.98-13.32,13.32-13.32s13.32,5.98,13.32,13.32v10.33Zm-23.05-3.59h19.46v-6.74c0-5.37-4.36-9.73-9.73-9.73s-9.73,4.36-9.73,9.73v6.74Z"/><rect class="cls-4" x="132.19" y="82.44" width="34.15" height="34.15" rx="3.54" ry="3.54"/><path class="cls-6" d="m154.18,109.11l-2.96-13.05c1.35-.72,2.25-2.17,2.18-3.82-.09-2.11-1.82-3.86-3.94-3.95-2.37-.11-4.33,1.78-4.33,4.13,0,1.58.88,2.95,2.18,3.65l-2.96,13.05c-.19.84.45,1.65,1.32,1.65h7.19c.87,0,1.51-.8,1.32-1.65Z"/><rect class="cls-2" width="300" height="200"/></g></svg>