<?xml version="1.0" encoding="UTF-8"?><svg id="Layer_2" xmlns="http://www.w3.org/2000/svg" viewBox="0 0 300 200"><defs><style>.cls-1{fill:#fff6eb;}.cls-1,.cls-2,.cls-3,.cls-4,.cls-5,.cls-6,.cls-7,.cls-8,.cls-9,.cls-10,.cls-11{stroke-width:0px;}.cls-2{fill:none;}.cls-3{fill:#eaaa5e;}.cls-4{fill:#4b4e53;}.cls-5{fill:#fff;}.cls-6{fill:#d6eaed;}.cls-7{fill:#fbfdff;}.cls-8{fill:#f89d13;}.cls-9{fill:#39b54a;}.cls-10{fill:#dde9fc;}.cls-11{fill:#2f3133;}</style></defs><g id="OBJECTS"><path class="cls-6" d="m250.6,153.64c0,1.54-1.4,2.8-3.13,2.8H52.53c-1.73,0-3.13-1.25-3.13-2.8V35.71c0-1.54,1.4-2.8,3.13-2.8h194.95c1.73,0,3.13,1.25,3.13,2.8v117.93Z"/><path class="cls-1" d="m240.37,147.28s0,0,0,0H59.64s0,0,0,0V42.06h180.74v105.22Z"/><path class="cls-4" d="m250.93,167.09H49.07c-5.01,0-9.07-4.06-9.07-9.07h0c0-.89.72-1.61,1.61-1.61h216.78c.89,0,1.61.72,1.61,1.61h0c0,5.01-4.06,9.07-9.07,9.07Z"/><path class="cls-11" d="m164.45,156.43h0c0,3.05-2.47,5.52-5.52,5.52h-17.87c-3.05,0-5.52-2.47-5.52-5.52h0"/><rect class="cls-7" x="61.44" y="43.47" width="177.38" height="101.65"/><rect class="cls-10" x="61.44" y="43.47" width="177.38" height="10.76"/><path class="cls-8" d="m67.77,49.27c0,.98-.79,1.77-1.77,1.77s-1.77-.79-1.77-1.77.79-1.77,1.77-1.77,1.77.79,1.77,1.77Z"/><circle class="cls-3" cx="71.6" cy="49.27" r="1.77"/><circle class="cls-9" cx="77.19" cy="49.27" r="1.77"/><rect class="cls-10" x="99.97" y="57.35" width="134.99" height="4.57"/><rect class="cls-10" x="99.97" y="67.15" width="20.59" height="23.51"/><rect class="cls-10" x="126.69" y="67.15" width="20.59" height="23.51"/><rect class="cls-10" x="99.97" y="106.94" width="20.59" height="30.42"/><rect class="cls-10" x="126.69" y="106.94" width="20.59" height="30.42"/><rect class="cls-10" x="153.42" y="106.94" width="20.59" height="30.42"/><rect class="cls-10" x="180.15" y="106.94" width="20.59" height="30.42"/><rect class="cls-10" x="206.87" y="106.94" width="20.59" height="30.42"/><rect class="cls-10" x="99.97" y="96.54" width="134.99" height="4.57"/><rect class="cls-1" x="64" y="56.8" width="31.24" height="86.42"/><path class="cls-8" d="m169.28,141.82h-40.18v-15.57c0-11.08,9.01-20.09,20.09-20.09s20.09,9.01,20.09,20.09v15.57Zm-34.76-5.42h29.34v-10.16c0-8.09-6.58-14.67-14.67-14.67s-14.67,6.58-14.67,14.67v10.16Z"/><path class="cls-7" d="m157.35,176.96l-4.92-21.7c2.24-1.2,3.74-3.61,3.62-6.36-.15-3.51-3.03-6.41-6.54-6.57-3.94-.18-7.2,2.96-7.2,6.87,0,2.62,1.47,4.9,3.63,6.06l-4.92,21.7c-.32,1.4.75,2.74,2.19,2.74h11.94c1.44,0,2.51-1.34,2.19-2.74Z"/><rect class="cls-2" width="300" height="200"/><path class="cls-7" d="m118.95,141.4v38.86c0,5.46,4.44,9.9,9.9,9.9h40.2c5.46,0,9.9-4.44,9.9-9.9v-38.86h-60Z"/><rect class="cls-4" x="120.95" y="132.16" width="56" height="56" rx="7.9" ry="7.9"/><path class="cls-5" d="m142.01,150.5h4.96v1.24h-3.59v1.98h3.47v1.24h-3.47v1.98h3.59v1.24h-4.96v-7.68Z"/><path class="cls-5" d="m151.55,150.5h1.36v6.32h3.22v1.24h-4.58v-7.56Z"/><path class="cls-5" d="m142.01,162.51h1.11l3.59,4.83v-4.83h1.36v7.56h-1.11l-3.59-4.96v4.96h-1.36v-7.56Z"/><path class="cls-5" d="m153.28,162.51h1.73l2.6,7.56h-1.49l-.5-1.61h-2.97l-.5,1.61h-1.49l2.6-7.56Zm1.86,4.58l-1.11-3.22-1.11,3.22h2.23Z"/><path class="cls-5" d="m148.95,178.49c-10.16,0-18.33-8.18-18.33-18.33s8.18-18.33,18.33-18.33,18.33,8.3,18.33,18.33-8.18,18.33-18.33,18.33Zm0-35.18c-9.29,0-16.85,7.56-16.85,16.85s7.56,16.85,16.85,16.85,16.85-7.56,16.85-16.85-7.56-16.85-16.85-16.85Z"/></g></svg>