<?xml version="1.0" encoding="utf-8"?>
<!-- Generator: Adobe Illustrator 27.5.0, SVG Export Plug-In . SVG Version: 6.00 Build 0)  -->
<svg version="1.1" id="Layer_1" xmlns="http://www.w3.org/2000/svg" xmlns:xlink="http://www.w3.org/1999/xlink" x="0px" y="0px"
	 width="32px" height="32px" viewBox="0 0 32 32" style="enable-background:new 0 0 32 32;" xml:space="preserve">
<style type="text/css">
	.st0{fill:none;}
	.st1{fill:#55E6A5;}
</style>
<rect class="st0" width="32" height="32"/>
<g>
	<path class="st1" d="M10.6,8.6h3.9v1h-2.8v1.6h2.7v1h-2.7v1.6h2.8v1h-3.9V8.6z"/>
</g>
<g>
	<path class="st1" d="M18.1,8.6h1.1v5h2.5v1h-3.6V8.6z"/>
</g>
<g>
	<path class="st1" d="M10.6,18.2h0.9l2.8,3.8v-3.8h1.1v6h-0.9l-2.8-3.9v3.9h-1.1V18.2z"/>
</g>
<g>
	<path class="st1" d="M19.5,18.2h1.4l2.1,6h-1.2l-0.4-1.3H19l-0.4,1.3h-1.2L19.5,18.2z M21,21.8l-0.9-2.5l-0.9,2.5H21z"/>
</g>
<g>
	<path class="st1" d="M16.1,30.8c-8,0-14.5-6.5-14.5-14.5S8,1.8,16.1,1.8s14.5,6.6,14.5,14.5C30.6,24.3,24.1,30.8,16.1,30.8z
		 M16.1,3C8.7,3,2.7,8.9,2.7,16.3s6,13.3,13.3,13.3s13.3-6,13.3-13.3S23.4,3,16.1,3z"/>
</g>
</svg>
